<svg width="262" height="262" viewBox="0 0 262 262" fill="none" xmlns="http://www.w3.org/2000/svg">
<path d="M197.875 57.75H65.125C57.0125 57.75 50.375 64.3875 50.375 72.5V161C50.375 169.112 57.0125 175.75 65.125 175.75H116.75L102 197.875V205.25H161V197.875L146.25 175.75H197.875C205.988 175.75 212.625 169.112 212.625 161V72.5C212.625 64.3875 205.988 57.75 197.875 57.75ZM197.875 146.25H65.125V72.5H197.875V146.25Z" fill="#FFD900"/>
<path d="M112.716 128.298L94.1346 109.716L112.716 91.1352L107.061 85.48L82.8242 109.716L107.061 133.953L112.716 128.298ZM150.283 128.298L168.864 109.716L150.283 91.1352L155.938 85.48L180.174 109.716L155.938 133.953L150.283 128.298Z" fill="#FFD900"/>
<line x1="139.711" y1="82.2942" x2="121.125" y2="139.053" stroke="#FFD900" stroke-width="7.965"/>
<circle cx="131" cy="131" r="127" stroke="#FFD900" stroke-width="8"/>
</svg>
