<svg width="269" height="262" viewBox="0 0 269 262" fill="none" xmlns="http://www.w3.org/2000/svg">
<path d="M116.462 153.875C96.5478 153.875 56.7949 163.869 56.7949 183.708V198.625H176.128V183.708C176.128 163.869 136.375 153.875 116.462 153.875ZM71.7116 183.708C73.3524 178.338 96.3987 168.792 116.462 168.792C136.599 168.792 159.72 178.413 161.212 183.708H71.7116Z" fill="#FFD900"/>
<path d="M84.6891 109.125H86.6283C86.6283 125.608 99.9787 138.958 116.462 138.958C132.945 138.958 146.295 125.608 146.295 109.125H148.234C150.248 109.125 151.889 107.484 151.889 105.47V105.321C151.889 103.307 150.248 101.667 148.234 101.667H146.295C146.295 90.6283 140.254 81.1563 131.378 75.9354V83.0208C131.378 85.1092 129.737 86.75 127.649 86.75C125.561 86.75 123.92 85.1092 123.92 83.0208V72.8775C121.533 72.2808 119.072 71.8333 116.462 71.8333C113.851 71.8333 111.39 72.2808 109.003 72.8775V83.0208C109.003 85.1092 107.362 86.75 105.274 86.75C103.186 86.75 101.545 85.1092 101.545 83.0208V75.9354C92.6695 81.1563 86.6283 90.6283 86.6283 101.667H84.6891C82.6753 101.667 81.0345 103.307 81.0345 105.321V105.545C81.0345 107.484 82.6753 109.125 84.6891 109.125ZM131.378 109.125C131.378 117.329 124.666 124.042 116.462 124.042C108.257 124.042 101.545 117.329 101.545 109.125H131.378Z" fill="#FFD900"/>
<path d="M213.271 88.4654L220.207 82.275L214.613 72.5792L205.738 75.4879C204.694 74.6675 203.5 73.9962 202.232 73.4742L200.368 64.375H189.18L187.316 73.4742C186.048 73.9962 184.855 74.6675 183.736 75.4879L174.935 72.5792L169.341 82.275L176.277 88.4654C176.128 89.7333 176.128 91.0758 176.277 92.3438L169.341 98.6833L174.935 108.379L183.885 105.545C184.855 106.291 185.973 106.888 187.092 107.41L189.18 116.583H200.368L202.382 107.484C203.575 106.962 204.619 106.365 205.663 105.62L214.539 108.454L220.132 98.7579L213.196 92.4183C213.42 91.0013 213.345 89.7333 213.271 88.4654ZM194.774 99.8021C189.628 99.8021 185.451 95.6254 185.451 90.4792C185.451 85.3329 189.628 81.1563 194.774 81.1563C199.92 81.1563 204.097 85.3329 204.097 90.4792C204.097 95.6254 199.92 99.8021 194.774 99.8021Z" fill="#FFD900"/>
<path d="M194.028 122.475L187.689 124.564C186.943 123.967 186.122 123.52 185.227 123.147L183.885 116.583H175.905L174.562 123.072C173.667 123.445 172.772 123.967 172.026 124.489L165.761 122.401L161.734 129.337L166.656 133.738C166.582 134.707 166.582 135.602 166.656 136.497L161.734 141.047L165.761 147.983L172.175 145.969C172.921 146.491 173.667 146.939 174.487 147.312L175.83 153.875H183.81L185.227 147.386C186.048 147.013 186.868 146.566 187.614 146.044L193.954 148.058L197.981 141.121L193.059 136.572C193.133 135.602 193.133 134.707 193.059 133.812L197.981 129.412L194.028 122.475ZM179.857 141.867C176.203 141.867 173.22 138.884 173.22 135.229C173.22 131.575 176.203 128.591 179.857 128.591C183.512 128.591 186.495 131.575 186.495 135.229C186.495 138.884 183.512 141.867 179.857 141.867Z" fill="#FFD900"/>
<circle cx="131" cy="131" r="127" stroke="#FFD900" stroke-width="8"/>
</svg>
