<svg width="262" height="262" viewBox="0 0 262 262" fill="none" xmlns="http://www.w3.org/2000/svg">
<path d="M93.4889 164.333C98.0723 164.333 101.822 168.083 101.822 172.667C101.822 181.833 94.3223 189.333 85.1556 189.333C83.7389 189.333 82.4056 189.167 80.9889 188.917C83.5723 184.333 85.1556 178.833 85.1556 172.667C85.1556 168.083 88.9056 164.333 93.4889 164.333ZM190.739 56C188.572 56 186.489 56.8333 184.822 58.4167L110.156 133.083L133.072 156L207.739 81.3333C210.989 78.0833 210.989 72.8333 207.739 69.5833L196.572 58.4167C194.906 56.75 192.822 56 190.739 56ZM93.4889 147.667C79.6556 147.667 68.4889 158.833 68.4889 172.667C68.4889 183.583 58.8223 189.333 51.8223 189.333C59.4889 199.5 72.5723 206 85.1556 206C103.572 206 118.489 191.083 118.489 172.667C118.489 158.833 107.322 147.667 93.4889 147.667Z" fill="#FFD900"/>
<circle cx="131" cy="131" r="127" stroke="#FFD900" stroke-width="8"/>
</svg>
