<svg width="54" height="46" viewBox="0 0 54 46" fill="none" xmlns="http://www.w3.org/2000/svg">
<path fill-rule="evenodd" clip-rule="evenodd" d="M5.32633 9.25025C5.64832 8.88267 5.98234 8.52427 6.3278 8.17539C10.0622 4.40406 15.1333 1.74464 20.8012 0.610343C26.9934 -0.628885 33.5006 0.0317196 39.1769 2.47582C44.8532 4.91991 49.3344 8.99074 51.8314 13.9714C54.3284 18.952 54.681 24.523 52.8271 29.7032C50.9733 34.8835 47.0318 39.3407 41.6969 42.2899C36.362 45.2391 29.9758 46.4912 23.663 45.8256C17.3503 45.16 11.5158 42.6194 7.18723 38.6513L22.7764 26.3262C23.6963 27.1696 24.9363 27.7095 26.2779 27.8509C27.6195 27.9924 28.9767 27.7263 30.1105 27.0995C31.2443 26.4727 32.0819 25.5255 32.4759 24.4246C32.8699 23.3237 32.795 22.1397 32.2643 21.0812C31.7336 20.0227 30.7813 19.1576 29.5749 18.6381C28.3686 18.1187 26.9857 17.9783 25.6697 18.2417C24.3537 18.5051 23.1891 19.1553 22.3809 20.0779L5.32633 9.25025ZM2.32474 32.3966L22.0676 25.5253C21.5802 24.8376 21.2961 24.0534 21.249 23.2409L0 24.1334C0.16664 27.0088 0.964002 29.8085 2.32474 32.3966Z" fill="#FFD900"/>
</svg>
